<svg width="19" height="19" viewBox="0 0 19 19" fill="none" xmlns="http://www.w3.org/2000/svg">
<path d="M8.18181 1.57195C8.4734 0.634708 9.79993 0.634707 10.0915 1.57195L11.5268 6.18537C11.6569 6.60345 12.0438 6.8883 12.4817 6.8883H17.2157C18.1739 6.8883 18.5835 8.10574 17.8202 8.68493L13.9166 11.6468C13.5813 11.9013 13.4412 12.3386 13.5662 12.7405L15.0395 17.4758C15.3285 18.4048 14.2552 19.1576 13.4801 18.5695L9.74113 15.7324C9.38377 15.4613 8.88956 15.4613 8.5322 15.7324L4.79319 18.5695C4.01813 19.1576 2.94484 18.4048 3.23387 17.4758L4.70709 12.7405C4.83215 12.3386 4.69207 11.9013 4.3567 11.6468L0.453174 8.68493C-0.310141 8.10574 0.099462 6.8883 1.05764 6.8883H5.79165C6.2295 6.8883 6.61643 6.60345 6.7465 6.18537L8.18181 1.57195Z" fill="#FFB988"/>
</svg>
